<?xml version="1.0" encoding="utf-8"?>
<svg version="1.1" xmlns="http://www.w3.org/2000/svg" xmlns:xlink="http://www.w3.org/1999/xlink" viewBox="0 0 271 296">
  <defs>
    <linearGradient x1="49.9963124%" y1="1.20184391%" x2="49.9963124%" y2="100.430281%" id="logo-gradient">
      <stop stop-color="#F48F41" offset="0%"/>
      <stop stop-color="#F05E2D" offset="100%"/>
    </linearGradient>
    <path d="M7,111.86 C8.89365024,112.774009 10.5270656,114.149516 11.75,115.86 C13.0550782,117.738911 13.9885329,119.850216 14.5,122.08 C15.1294383,124.763672 15.4316372,127.513682 15.4,130.27 L15.4,150.77 C15.3778804,155.913268 16.0986529,161.032773 17.54,165.97 C19.0063807,170.870922 21.4752435,175.41363 24.79,179.31 C28.6095878,183.71753 33.1929889,187.399833 38.32,190.18 C44.7149719,193.646892 51.5506043,196.230438 58.64,197.86 L65.69,180 C62.9901739,179.12337 60.5294772,177.634632 58.5,175.65 C56.6047602,173.728152 55.079359,171.473948 54,169 C52.8299934,166.308211 52.0358815,163.468251 51.64,160.56 C51.1819185,157.31363 50.958007,154.038508 50.97,150.76 L50.97,130.25 C51.0323163,123.771227 49.1703655,117.419713 45.62,112 C42.0466667,106.506667 36.3166667,102.143333 28.43,98.91 C36.3166667,95.6766667 42.0466667,91.3433333 45.62,85.91 C49.1981825,80.4755793 51.0715903,74.0962426 51,67.59 L51,47.07 C50.9880762,43.7914944 51.2119872,40.5163772 51.67,37.27 C52.0562936,34.3631991 52.8402973,31.5232887 54,28.83 C55.0795578,26.3674992 56.6013741,24.1237522 58.49,22.21 C60.5194772,20.2253683 62.9801739,18.7366297 65.68,17.86 L58.6,0.07 C51.5176711,1.69895776 44.6841354,4.26489658 38.28,7.7 C33.1489282,10.4487141 28.5635603,14.1122637 24.75,18.51 C21.4352435,22.4063702 18.9663807,26.9490777 17.5,31.85 C16.0612184,36.7909666 15.3438086,41.9138794 15.37,47.06 L15.37,67.58 C15.37,73.6466667 14.15,78.48 11.71,82.08 C9.27,85.68 5.36666667,87.4833333 0,87.49 L0,110.43 C2.4119431,110.365586 4.80656914,110.854774 7,111.86 Z" id="logo-filter-path"/>
    <filter x="-6.9%" y="-1.8%" width="110.7%" height="103.5%" filterUnits="objectBoundingBox" id="logo-shadow-filter">
      <feOffset dx="-1" dy="0" in="SourceAlpha" result="shadowOffsetOuter1"/>
      <feGaussianBlur stdDeviation="1" in="shadowOffsetOuter1" result="shadowBlurOuter1"/>
      <feColorMatrix values="0 0 0 0 0   0 0 0 0 0   0 0 0 0 0  0 0 0 0.2 0" type="matrix" in="shadowBlurOuter1"/>
    </filter>
  </defs>
  <g stroke="none" stroke-width="1" fill="none">
    <path d="M243.61,242 L162.86,288.6 C145.920844,298.382209 125.049156,298.382209 108.11,288.6 L27.37,242 C10.421348,232.212314 -0.0135800219,214.121802 -7.10542736e-15,194.55 L-7.10542736e-15,101.34 C0.0256976982,81.8075007 10.455365,63.768025 27.37,54 L108.12,7.34 C125.059156,-2.44220867 145.930844,-2.44220867 162.87,7.34 L243.61,54 C260.547784,63.7718865 270.988016,81.8355085 271,101.39 L271,194.64 C270.977308,214.18377 260.538511,232.233476 243.61,242 Z" fill="url(#logo-gradient)"/>
    <g transform="translate(94.000000, 49.000000)">
      <use fill="black" fill-opacity="1" filter="url(#logo-shadow-filter)" xlink:href="#logo-filter-path"/>
      <use fill="#FFFFFF" fill-rule="evenodd" xlink:href="#logo-filter-path"/>
    </g>
  </g>
</svg>
